# xmcd CD database file
#
# Track frame offsets:
#	150
#	5699
#	63101
#	129662
#	184525
#	252578
#
# Disc length: 4174 seconds
#
# Revision: 0
# Processed by: cddbd v1.5.1PL0 Copyright (c) Steve Scherf et al.
# Submitted via: CDex 1.51
#
DISCID=4c104c06
DTITLE=KVHW - 98-11-21 Disc1
DYEAR=1998
DGENRE=Jazz
TTITLE0=tuning-
TTITLE1=Five Before Funk
TTITLE2=SoulRoach.ShotgunHouse.SoulRoach
TTITLE3=Good Lovin Seven
TTITLE4=Eegads (aka New Nodge)
TTITLE5=Hillbillies On PCP
EXTD=YEAR: 1998
EXTT0=
EXTT1=
EXTT2=
EXTT3=
EXTT4=
EXTT5=
PLAYORDER=
